<svg width="1440" height="565" viewBox="0 0 1440 565" fill="none" xmlns="http://www.w3.org/2000/svg">
<g clip-path="url(#clip0_377_347)">
<line x1="0.5" y1="2.18557e-08" x2="0.499964" y2="816" stroke="#E4EBF1"/>
<line x1="40.8335" y1="2.18557e-08" x2="40.8335" y2="816" stroke="#E4EBF1"/>
<line x1="81.1665" y1="2.18557e-08" x2="81.1665" y2="816" stroke="#E4EBF1"/>
<line x1="121.5" y1="2.18557e-08" x2="121.5" y2="816" stroke="#E4EBF1"/>
<line x1="161.833" y1="2.18557e-08" x2="161.833" y2="816" stroke="#E4EBF1"/>
<line x1="202.167" y1="2.18557e-08" x2="202.166" y2="816" stroke="#E4EBF1"/>
<line x1="242.5" y1="2.18557e-08" x2="242.5" y2="816" stroke="#E4EBF1"/>
<line x1="282.833" y1="2.18557e-08" x2="282.833" y2="816" stroke="#E4EBF1"/>
<line x1="323.167" y1="2.18557e-08" x2="323.166" y2="816" stroke="#E4EBF1"/>
<line x1="363.5" y1="2.18557e-08" x2="363.5" y2="816" stroke="#E4EBF1"/>
<line x1="403.833" y1="2.18557e-08" x2="403.833" y2="816" stroke="#E4EBF1"/>
<line x1="444.167" y1="2.18557e-08" x2="444.166" y2="816" stroke="#E4EBF1"/>
<line x1="484.5" y1="2.18557e-08" x2="484.5" y2="816" stroke="#E4EBF1"/>
<line x1="524.833" y1="2.18557e-08" x2="524.833" y2="816" stroke="#E4EBF1"/>
<line x1="565.167" y1="2.18557e-08" x2="565.167" y2="816" stroke="#E4EBF1"/>
<line x1="605.5" y1="2.18557e-08" x2="605.5" y2="816" stroke="#E4EBF1"/>
<line x1="645.833" y1="2.18557e-08" x2="645.833" y2="816" stroke="#E4EBF1"/>
<line x1="686.167" y1="2.18557e-08" x2="686.166" y2="816" stroke="#E4EBF1"/>
<line x1="726.5" y1="2.18557e-08" x2="726.5" y2="816" stroke="#E4EBF1"/>
<line x1="766.833" y1="2.18557e-08" x2="766.833" y2="816" stroke="#E4EBF1"/>
<line x1="807.167" y1="2.18557e-08" x2="807.166" y2="816" stroke="#E4EBF1"/>
<line x1="847.5" y1="2.18557e-08" x2="847.5" y2="816" stroke="#E4EBF1"/>
<line x1="887.833" y1="2.18557e-08" x2="887.833" y2="816" stroke="#E4EBF1"/>
<line x1="928.167" y1="2.18557e-08" x2="928.166" y2="816" stroke="#E4EBF1"/>
<line x1="968.5" y1="2.18557e-08" x2="968.5" y2="816" stroke="#E4EBF1"/>
<line x1="1008.83" y1="2.18557e-08" x2="1008.83" y2="816" stroke="#E4EBF1"/>
<line x1="1049.17" y1="2.18557e-08" x2="1049.17" y2="816" stroke="#E4EBF1"/>
<line x1="1089.5" y1="2.18557e-08" x2="1089.5" y2="816" stroke="#E4EBF1"/>
<line x1="1129.83" y1="2.18557e-08" x2="1129.83" y2="816" stroke="#E4EBF1"/>
<line x1="1170.17" y1="2.18557e-08" x2="1170.17" y2="816" stroke="#E4EBF1"/>
<line x1="1210.5" y1="2.18557e-08" x2="1210.5" y2="816" stroke="#E4EBF1"/>
<line x1="1250.83" y1="2.18557e-08" x2="1250.83" y2="816" stroke="#E4EBF1"/>
<line x1="1291.17" y1="2.18557e-08" x2="1291.17" y2="816" stroke="#E4EBF1"/>
<line x1="1331.5" y1="2.18557e-08" x2="1331.5" y2="816" stroke="#E4EBF1"/>
<line x1="1371.83" y1="2.18557e-08" x2="1371.83" y2="816" stroke="#E4EBF1"/>
<line x1="1412.17" y1="2.18557e-08" x2="1412.17" y2="816" stroke="#E4EBF1"/>
<line x1="1452" y1="0.5" x2="0.000122027" y2="0.499873" stroke="#E4EBF1"/>
<line x1="1452" y1="40.8711" x2="0.000122027" y2="40.871" stroke="#E4EBF1"/>
<line x1="1452" y1="81.2422" x2="0.000122027" y2="81.2421" stroke="#E4EBF1"/>
<line x1="1452" y1="121.613" x2="0.000122027" y2="121.613" stroke="#E4EBF1"/>
<line x1="1452" y1="161.984" x2="0.000122027" y2="161.984" stroke="#E4EBF1"/>
<line x1="1452" y1="202.355" x2="0.000122027" y2="202.355" stroke="#E4EBF1"/>
<line x1="1452" y1="242.727" x2="0.000122027" y2="242.726" stroke="#E4EBF1"/>
<line x1="1452" y1="283.098" x2="0.000122027" y2="283.098" stroke="#E4EBF1"/>
<line x1="1452" y1="323.469" x2="0.000122027" y2="323.469" stroke="#E4EBF1"/>
<line x1="1452" y1="363.84" x2="0.000122027" y2="363.84" stroke="#E4EBF1"/>
<line x1="1452" y1="404.211" x2="0.000122027" y2="404.211" stroke="#E4EBF1"/>
<line x1="1452" y1="444.582" x2="0.000122027" y2="444.582" stroke="#E4EBF1"/>
<line x1="1452" y1="484.953" x2="0.000122027" y2="484.953" stroke="#E4EBF1"/>
<line x1="1452" y1="525.324" x2="0.000122027" y2="525.324" stroke="#E4EBF1"/>
<rect x="121" y="40.875" width="40.0812" height="40.1187" fill="#EBEFF5"/>
<rect x="242" y="202.107" width="40.0812" height="40.1187" rx="3" fill="#EBEFF5"/>
<rect x="363" y="283.102" width="40.0812" height="40.1187" fill="#EBEFF5"/>
<rect x="1290.92" y="80.9941" width="40.0812" height="40.1187" fill="#EBEFF5"/>
<rect x="1169.92" y="161.23" width="40.0812" height="40.1187" fill="#EBEFF5"/>
<path d="M1290.16 323.221H1250.08V283.102H1290.16V323.221Z" fill="#EBEFF5"/>
<rect x="1089" y="363.338" width="40.0812" height="40.1187" fill="#EBEFF5"/>
<rect x="1210" y="444.334" width="40.0812" height="40.1187" fill="#EBEFF5"/>
<rect x="1331" y="525.328" width="40.0812" height="40.1187" fill="#EBEFF5"/>
<rect x="121" y="444.334" width="40.0812" height="40.1187" fill="#EBEFF5"/>
<rect x="242" y="525.328" width="40.0812" height="40.1187" fill="#EBEFF5"/>
<rect x="363" y="444.334" width="40.0812" height="40.1187" fill="#EBEFF5"/>
<rect y="422" width="1440" height="396" fill="url(#paint0_linear_377_347)"/>
<rect x="1440" width="818" height="1440" transform="rotate(90 1440 0)" fill="url(#paint1_radial_377_347)"/>
</g>
<defs>
<linearGradient id="paint0_linear_377_347" x1="720" y1="422" x2="720" y2="868.233" gradientUnits="userSpaceOnUse">
<stop stop-color="white" stop-opacity="0"/>
<stop offset="1" stop-color="white"/>
</linearGradient>
<radialGradient id="paint1_radial_377_347" cx="0" cy="0" r="1" gradientUnits="userSpaceOnUse" gradientTransform="translate(1849 720) rotate(90) scale(902.667 1274.82)">
<stop offset="0.0579573" stop-color="white"/>
<stop offset="1" stop-color="white" stop-opacity="0"/>
</radialGradient>
<clipPath id="clip0_377_347">
<rect width="1440" height="565" fill="white"/>
</clipPath>
</defs>
</svg>
